<svg width="67" height="69" viewBox="0 0 67 69" fill="none" xmlns="http://www.w3.org/2000/svg">
<path d="M1.35954 61.4419C1.35954 64.737 4.03074 67.4082 7.32583 67.4082H55.7191C59.0142 67.4082 61.6854 64.737 61.6854 61.4419V13.0487C61.6854 9.75358 59.0142 7.08238 55.7191 7.08238H7.32583C4.03074 7.08238 1.35954 9.75358 1.35954 13.0487V61.4419Z" fill="#1F1704" stroke="#3B2B0D" stroke-width="1.32584"/>
<path d="M5.33708 55.6966C5.33708 58.9917 8.00828 61.6629 11.3034 61.6629H59.6966C62.9917 61.6629 65.6629 58.9917 65.6629 55.6966V7.30337C65.6629 4.00828 62.9917 1.33708 59.6966 1.33708H11.3034C8.00828 1.33708 5.33708 4.00828 5.33708 7.30337V55.6966Z" fill="#1F1704" stroke="#3B2B0D" stroke-width="1.32584"/>
<path fill-rule="evenodd" clip-rule="evenodd" d="M3.19631 7.18537C4.20711 5.66226 5.53236 3.79723 6.73567 2.53662L7.69472 3.45208C6.57781 4.62219 5.30661 6.40323 4.30102 7.9185C3.80168 8.67094 3.37394 9.34847 3.07112 9.83777C2.91977 10.0823 2.79979 10.2796 2.71786 10.4154C2.6769 10.4832 2.64546 10.5357 2.62437 10.5711L2.60062 10.6109L2.59308 10.6237C2.59308 10.6237 2.59304 10.6237 2.02231 10.2865C1.45158 9.94924 1.45162 9.94918 1.45166 9.94911L1.46062 9.93399L1.4859 9.89154C1.50803 9.85447 1.54057 9.80014 1.58269 9.73034C1.66692 9.59076 1.7895 9.38924 1.94372 9.14005C2.25203 8.64187 2.68746 7.95213 3.19631 7.18537Z" fill="#3B2B0D"/>
<path fill-rule="evenodd" clip-rule="evenodd" d="M58.2939 66.1128C60.7248 64.2104 62.6604 61.2173 64.0917 58.6851L65.2459 59.3374C63.8045 61.8876 61.7626 65.0818 59.1111 67.1569L58.2939 66.1128Z" fill="#3B2B0D"/>
<path fill-rule="evenodd" clip-rule="evenodd" d="M5.20854 61.6471C5.43021 61.3184 5.53916 60.9235 5.46192 60.5347C5.40955 60.271 5.33857 59.9736 5.25603 59.6301C5.08505 58.9186 4.881 58.0653 4.78767 57.0853L6.10754 56.9596C6.19099 57.8358 6.37365 58.6066 6.54517 59.3203C6.55124 59.3455 6.55732 59.3708 6.56341 59.3961C6.6059 59.5727 6.64858 59.75 6.6883 59.9266L7.0781 59.5368L8.01561 60.4743L7.73363 60.7563L10.0165 60.8906L9.93864 62.2142L7.5653 62.0746C6.94175 62.0379 6.34513 62.333 5.99588 62.8509L3.5665 66.453L2.46729 65.7117L5.20854 61.6471Z" fill="#3B2B0D"/>
<path d="M15.4749 41H20.5249V41.88H18.4549V48H17.5349V41.88H15.4749V41ZM22.6045 46.92L24.0445 43H24.9745L22.9345 48.31C22.7212 48.8767 22.4212 49.3067 22.0345 49.6C21.6479 49.9 21.2079 50.0333 20.7145 50V49.19C21.3212 49.2367 21.7712 48.9033 22.0645 48.19L22.1445 48.01L19.9745 43H20.8945L22.6045 46.92ZM28.461 42.87C29.161 42.87 29.7577 43.1267 30.251 43.64C30.7443 44.1533 30.991 44.7733 30.991 45.5C30.991 46.2333 30.7443 46.8567 30.251 47.37C29.7643 47.8767 29.1677 48.13 28.461 48.13C27.6343 48.13 27.0043 47.8 26.571 47.14V50H25.701V43H26.571V43.86C27.0043 43.2 27.6343 42.87 28.461 42.87ZM28.351 47.29C28.851 47.29 29.271 47.12 29.611 46.78C29.951 46.4267 30.121 46 30.121 45.5C30.121 44.9933 29.951 44.57 29.611 44.23C29.271 43.8833 28.851 43.71 28.351 43.71C27.8443 43.71 27.421 43.8833 27.081 44.23C26.741 44.57 26.571 44.9933 26.571 45.5C26.571 46 26.741 46.4267 27.081 46.78C27.421 47.12 27.8443 47.29 28.351 47.29ZM35.4891 45.08V43H36.3591V48H35.4891V45.91H32.8991V48H32.0291V43H32.8991V45.08H35.4891ZM38.5434 46.51L41.3134 43H42.0134V48H41.1534V44.49L38.3834 48H37.6834V43H38.5434V46.51ZM46.0977 42.87C46.7977 42.87 47.3944 43.1267 47.8877 43.64C48.3811 44.1533 48.6277 44.7733 48.6277 45.5C48.6277 46.2333 48.3811 46.8567 47.8877 47.37C47.4011 47.8767 46.8044 48.13 46.0977 48.13C45.2711 48.13 44.6411 47.8 44.2077 47.14V50H43.3377V43H44.2077V43.86C44.6411 43.2 45.2711 42.87 46.0977 42.87ZM45.9877 47.29C46.4877 47.29 46.9077 47.12 47.2477 46.78C47.5877 46.4267 47.7577 46 47.7577 45.5C47.7577 44.9933 47.5877 44.57 47.2477 44.23C46.9077 43.8833 46.4877 43.71 45.9877 43.71C45.4811 43.71 45.0577 43.8833 44.7177 44.23C44.3777 44.57 44.2077 44.9933 44.2077 45.5C44.2077 46 44.3777 46.4267 44.7177 46.78C45.0577 47.12 45.4811 47.29 45.9877 47.29ZM50.5359 44.8H51.7759C52.2759 44.8 52.6892 44.95 53.0159 45.25C53.3492 45.5433 53.5159 45.9267 53.5159 46.4C53.5159 46.8733 53.3492 47.26 53.0159 47.56C52.6825 47.8533 52.2692 48 51.7759 48H49.6659V43H50.5359V44.8ZM54.1659 48V43H55.0359V48H54.1659ZM50.5359 47.19H51.7759C52.0292 47.19 52.2392 47.1167 52.4059 46.97C52.5725 46.8233 52.6559 46.6333 52.6559 46.4C52.6559 46.1667 52.5692 45.9767 52.3959 45.83C52.2292 45.6767 52.0225 45.6 51.7759 45.6H50.5359V47.19Z" fill="#E0CAA3"/>
<path d="M40 14H30C29.4696 14 28.9609 14.2107 28.5858 14.5858C28.2107 14.9609 28 15.4696 28 16V20.7065C27.9813 22.4257 28.5746 24.0955 29.6737 25.4176C30.7729 26.7396 32.3063 27.6278 34 27.9233V32H30C29.4696 32 28.9609 32.2107 28.5858 32.5858C28.4498 32.7218 28.3354 32.8753 28.2448 33.0411C27.9801 33.5258 28.4477 34 29 34H41C41.5523 34 42.0199 33.5258 41.7552 33.0411C41.6646 32.8753 41.5502 32.7218 41.4142 32.5858C41.0391 32.2107 40.5304 32 40 32H36V27.9209C37.6651 27.6814 39.1882 26.85 40.2901 25.5789C41.3921 24.3078 41.9991 22.6822 42 21V16C42 15.4696 41.7893 14.9609 41.4142 14.5858C41.0391 14.2107 40.5304 14 40 14ZM37.87 21.21L36.6573 21.8163C36.2934 21.9983 35.9984 22.2933 35.8164 22.6572L35.21 23.87C35.1904 23.9089 35.1604 23.9417 35.1234 23.9645C35.0863 23.9874 35.0436 23.9995 35 23.9995C34.9564 23.9995 34.9137 23.9874 34.8766 23.9645C34.8396 23.9417 34.8096 23.9089 34.79 23.87L34.1837 22.6573C34.0017 22.2934 33.7067 21.9984 33.3428 21.8164L32.13 21.21C32.0911 21.1904 32.0583 21.1604 32.0355 21.1234C32.0126 21.0863 32.0005 21.0436 32.0005 21C32.0005 20.9564 32.0126 20.9137 32.0355 20.8766C32.0583 20.8396 32.0911 20.8096 32.13 20.79L33.3427 20.1837C33.7066 20.0017 34.0016 19.7066 34.1836 19.3427L34.79 18.13C34.8096 18.0911 34.8396 18.0583 34.8766 18.0355C34.9137 18.0126 34.9564 18.0005 35 18.0005C35.0436 18.0005 35.0863 18.0126 35.1234 18.0355C35.1604 18.0583 35.1904 18.0911 35.21 18.13L35.8163 19.3426C35.9983 19.7065 36.2933 20.0016 36.6572 20.1836L37.87 20.79C37.9089 20.8096 37.9417 20.8396 37.9645 20.8766C37.9874 20.9137 37.9995 20.9564 37.9995 21C37.9995 21.0436 37.9874 21.0863 37.9645 21.1234C37.9417 21.1604 37.9089 21.1904 37.87 21.21ZM42.957 21.83C42.9854 21.5542 42.9997 21.2772 43 21V16H44C44.2652 16 44.5196 16.1054 44.7071 16.2929C44.8946 16.4804 45 16.7348 45 17V19C44.9987 19.6262 44.8009 20.2363 44.4343 20.744C44.0677 21.2518 43.551 21.6317 42.957 21.83ZM27 16V20.7061C27.0029 21.0866 27.0317 21.4664 27.0861 21.843C26.4819 21.6514 25.9543 21.2728 25.5793 20.7618C25.2044 20.2508 25.0015 19.6338 25 19V17C25 16.7348 25.1054 16.4804 25.2929 16.2929C25.4804 16.1054 25.7348 16 26 16H27Z" fill="#7C612F"/>
</svg>
