<svg width="20" height="20" viewBox="0 0 20 20" fill="none" xmlns="http://www.w3.org/2000/svg">
<path d="M15 0H5C4.46957 0 3.96086 0.210714 3.58579 0.585786C3.21071 0.960859 3 1.46957 3 2V6.7065C2.98132 8.42569 3.57455 10.0955 4.67371 11.4176C5.77286 12.7396 7.30629 13.6278 9 13.9233V18H5C4.46957 18 3.96086 18.2107 3.58579 18.5858C3.44979 18.7218 3.33541 18.8753 3.24484 19.0411C2.98007 19.5258 3.44772 20 4 20H16C16.5523 20 17.0199 19.5258 16.7552 19.0411C16.6646 18.8753 16.5502 18.7218 16.4142 18.5858C16.0391 18.2107 15.5304 18 15 18H11V13.9209C12.6651 13.6814 14.1882 12.85 15.2901 11.5789C16.3921 10.3078 16.9991 8.68224 17 7V2C17 1.46957 16.7893 0.960859 16.4142 0.585786C16.0391 0.210714 15.5304 0 15 0ZM12.87 7.21L11.6573 7.8163C11.2934 7.99828 10.9984 8.29333 10.8164 8.6572L10.21 9.87C10.1904 9.90893 10.1604 9.94167 10.1234 9.96454C10.0863 9.98741 10.0436 9.99953 10 9.99953C9.95643 9.99953 9.91372 9.98741 9.87663 9.96454C9.83955 9.94167 9.80956 9.90893 9.79 9.87L9.1837 8.6573C9.00173 8.29343 8.70667 7.99837 8.3428 7.8164L7.13 7.21C7.09106 7.19044 7.05833 7.16045 7.03546 7.12337C7.01259 7.08628 7.00047 7.04357 7.00047 7C7.00047 6.95643 7.01259 6.91372 7.03546 6.87663C7.05833 6.83955 7.09106 6.80956 7.13 6.79L8.3427 6.1837C8.70658 6.00169 9.00163 5.7066 9.1836 5.3427L9.79 4.13C9.80956 4.09106 9.83955 4.05833 9.87663 4.03546C9.91372 4.01259 9.95643 4.00047 10 4.00047C10.0436 4.00047 10.0863 4.01259 10.1234 4.03546C10.1604 4.05833 10.1904 4.09106 10.21 4.13L10.8163 5.3426C10.9983 5.7065 11.2933 6.00159 11.6572 6.1836L12.87 6.79C12.9089 6.80956 12.9417 6.83955 12.9645 6.87663C12.9874 6.91372 12.9995 6.95643 12.9995 7C12.9995 7.04357 12.9874 7.08628 12.9645 7.12337C12.9417 7.16045 12.9089 7.19044 12.87 7.21ZM17.957 7.83C17.9854 7.55424 17.9997 7.27722 18 7V2H19C19.2652 2 19.5196 2.10536 19.7071 2.29289C19.8946 2.48043 20 2.73478 20 3V5C19.9987 5.62625 19.8009 6.23628 19.4343 6.74404C19.0677 7.2518 18.551 7.63165 17.957 7.83ZM2 2V6.7061C2.00293 7.08658 2.0317 7.46642 2.0861 7.843C1.48194 7.6514 0.954298 7.27276 0.57934 6.76176C0.204381 6.25075 0.00150542 5.63381 0 5V3C0 2.73478 0.105357 2.48043 0.292893 2.29289C0.48043 2.10536 0.734784 2 1 2H2Z" fill="#7C612F"/>
</svg>
