<svg width="20" height="20" viewBox="0 0 20 20" fill="none" xmlns="http://www.w3.org/2000/svg">
<path fill-rule="evenodd" clip-rule="evenodd" d="M2.38581 17.9524C2.61936 18.0491 2.88819 17.9957 3.06694 17.8169L3.18919 17.6947C4.03665 16.8472 5.32872 16.6288 6.3895 17.1604C7.4642 17.699 8.67913 18.0005 9.96707 18C14.366 18.0019 17.9573 14.4841 17.9996 10.0784C18.0422 5.64457 14.4994 2 10 2C5.57114 2 1.95942 5.63923 2.00034 10.0754L2 17.375C1.99999 17.6277 2.15226 17.8557 2.38581 17.9524ZM6 11C6.55228 11 7 10.5523 7 10C7 9.44772 6.55228 9 6 9C5.44772 9 5 9.44772 5 10C5 10.5523 5.44772 11 6 11ZM11 10C11 10.5523 10.5523 11 10 11C9.44772 11 9 10.5523 9 10C9 9.44772 9.44772 9 10 9C10.5523 9 11 9.44772 11 10ZM14 11C14.5523 11 15 10.5523 15 10C15 9.44772 14.5523 9 14 9C13.4477 9 13 9.44772 13 10C13 10.5523 13.4477 11 14 11Z" fill="#7C612F"/>
</svg>
