<svg width="20" height="20" viewBox="0 0 20 20" fill="none" xmlns="http://www.w3.org/2000/svg">
<g clip-path="url(#clip0_79_260)">
<path d="M9.2098 11.0614C8.5973 10.5436 7.825 10.2344 6.9866 10.2344C6.39828 10.2344 5.82676 10.3864 5.3125 10.6771C4.79824 10.3864 4.22668 10.2344 3.6384 10.2344C1.65371 10.2344 0.0390625 11.9674 0.0390625 14.0976C0.0390625 17.297 2.45398 20 5.3125 20C6.88094 20 8.31574 19.1861 9.29144 17.9231C8.60883 16.7832 8.24219 15.4638 8.24219 14.0976C8.24219 12.9582 8.60289 11.9061 9.2098 11.0614Z" fill="#7C612F"/>
<path d="M11.9738 8.59972C12.0711 8.78144 12.1696 8.9562 12.2683 9.12409C12.5112 9.0837 12.7601 9.06253 13.0136 9.06253C13.2223 9.06253 13.4305 9.07726 13.6367 9.10593C13.4221 8.7787 13.2017 8.41296 12.9888 8.01257C12.24 6.60413 11.7866 5.17816 11.6301 3.74831C11.7414 3.89663 11.8644 4.04038 12.0007 4.17671C13.3741 5.55015 15.4951 5.59023 15.5847 5.59124C15.587 5.59128 15.5892 5.59128 15.5914 5.59128C15.7468 5.59128 15.8958 5.5296 16.0057 5.41964C16.1173 5.30812 16.1791 5.15632 16.1773 4.99859C16.1763 4.90898 16.1363 2.788 14.7628 1.41456C13.3943 0.0460084 11.2838 0.00132089 11.1801 3.18287e-05C11.1679 -0.000163484 11.1557 0.000578704 11.1434 0.0012037C11.0535 0.00514902 10.9669 0.0297975 10.8895 0.0727271C9.4675 0.828274 8.2575 1.89699 7.29305 3.24956C6.52695 4.32394 5.91477 5.5773 5.47348 6.97488C5.21121 7.80554 5.04109 8.58499 4.93066 9.25066C5.05969 9.28882 5.18719 9.33249 5.31266 9.38195C5.58074 9.27628 5.85797 9.19613 6.14012 9.14253C6.24172 8.59441 6.38598 7.97695 6.59098 7.32773C7.36828 4.86577 8.65824 2.98757 10.433 1.728C10.2612 4.02718 10.7851 6.37898 11.9738 8.59972Z" fill="#7C612F"/>
<path d="M16.3616 10.2344C15.7733 10.2344 15.2018 10.3864 14.6875 10.6771C14.1732 10.3864 13.6017 10.2344 13.0134 10.2344C11.0287 10.2344 9.41406 11.9674 9.41406 14.0976C9.41406 17.297 11.829 20 14.6875 20C17.546 20 19.9609 17.297 19.9609 14.0976C19.9609 11.9674 18.3463 10.2344 16.3616 10.2344Z" fill="#7C612F"/>
</g>
<defs>
<clipPath id="clip0_79_260">
<rect width="20" height="20" fill="white"/>
</clipPath>
</defs>
</svg>
