<svg width="20" height="20" viewBox="0 0 20 20" fill="none" xmlns="http://www.w3.org/2000/svg">
<path d="M18.896 12.9686C18.755 14.5284 18.5284 15.7958 18.2528 16.9267C18.069 18.0576 16.9663 19 15.7718 19H14.3016C13.4746 19 12.8313 18.3403 12.8313 17.4921V13.6283C12.8313 12.6859 12.0962 11.9319 11.1773 11.9319H9.06383C8.14497 11.9319 7.40985 12.6859 7.40985 13.6283V17.4921C7.40985 18.3403 6.76663 19 5.93963 19H4.19374C2.99917 19 1.98839 18.1518 1.71272 16.9267C1.43706 15.7016 1.19804 14.5294 1.0695 12.9686C0.906363 10.9877 1.0695 9.10468 1.16139 7.87958C1.16139 7.12565 1.62084 6.37173 2.26406 5.90053L8.69627 1.4712C9.06383 1.18848 9.52328 1 9.98273 1C10.4422 1 10.9935 1.18848 11.3611 1.4712L17.7933 5.90053C18.4365 6.37173 18.896 7.12565 18.896 7.87958C18.9879 9.10468 19.0748 10.9894 18.896 12.9686Z" fill="#7C612F"/>
</svg>
