<svg width="36" height="36" viewBox="0 0 36 36" fill="none" xmlns="http://www.w3.org/2000/svg">
<g filter="url(#filter0_di_79_414)">
<path d="M26.896 20.9686C26.755 22.5284 26.5284 23.7958 26.2528 24.9267C26.069 26.0576 24.9663 27 23.7718 27H22.3016C21.4746 27 20.8313 26.3403 20.8313 25.4921V21.6283C20.8313 20.6859 20.0962 19.9319 19.1773 19.9319H17.0638C16.145 19.9319 15.4099 20.6859 15.4099 21.6283V25.4921C15.4099 26.3403 14.7666 27 13.9396 27H12.1937C10.9992 27 9.98839 26.1518 9.71272 24.9267C9.43706 23.7016 9.19804 22.5294 9.0695 20.9686C8.90636 18.9877 9.0695 17.1047 9.16139 15.8796C9.16139 15.1257 9.62084 14.3717 10.2641 13.9005L16.6963 9.4712C17.0638 9.18848 17.5233 9 17.9827 9C18.4422 9 18.9935 9.18848 19.3611 9.4712L25.7933 13.9005C26.4365 14.3717 26.896 15.1257 26.896 15.8796C26.9879 17.1047 27.0748 18.9894 26.896 20.9686Z" fill="#E8B21D"/>
<path d="M26.0381 24.8743L26.036 24.8827L26.0346 24.8912C25.8686 25.9132 24.86 26.779 23.7718 26.779H22.3016C21.6018 26.779 21.0523 26.2236 21.0523 25.4921V21.6283C21.0523 20.5691 20.2235 19.711 19.1773 19.711H17.0638C16.0177 19.711 15.1889 20.5691 15.1889 21.6283V25.4921C15.1889 26.2236 14.6394 26.779 13.9396 26.779H12.1937C11.1107 26.779 10.1831 26.0107 9.9283 24.8782L9.71308 24.9266L9.9283 24.8782C9.65353 23.657 9.41704 22.4963 9.28973 20.9504C9.13783 19.106 9.27162 17.3459 9.36472 16.121C9.37058 16.0439 9.37628 15.9689 9.38174 15.8961L9.38236 15.8879V15.8796C9.38236 15.2127 9.7931 14.5206 10.3921 14.0807L16.8216 9.6532L16.8218 9.65345L16.831 9.64636C17.1686 9.38669 17.5819 9.22097 17.9827 9.22097C18.393 9.22097 18.897 9.39304 19.2264 9.64636L19.2262 9.6466L19.2358 9.6532L25.6653 14.0807C26.2643 14.5206 26.675 15.2127 26.675 15.8796V15.8879L26.6756 15.8961C26.7671 17.1157 26.8532 18.9868 26.6759 20.9487C26.536 22.4974 26.3112 23.7541 26.0381 24.8743Z" stroke="url(#paint0_linear_79_414)" stroke-width="0.441948"/>
</g>
<defs>
<filter id="filter0_di_79_414" x="0.571428" y="0.571428" width="34.8571" height="34.8571" filterUnits="userSpaceOnUse" color-interpolation-filters="sRGB">
<feFlood flood-opacity="0" result="BackgroundImageFix"/>
<feColorMatrix in="SourceAlpha" type="matrix" values="0 0 0 0 0 0 0 0 0 0 0 0 0 0 0 0 0 0 127 0" result="hardAlpha"/>
<feOffset/>
<feGaussianBlur stdDeviation="4.21429"/>
<feComposite in2="hardAlpha" operator="out"/>
<feColorMatrix type="matrix" values="0 0 0 0 1 0 0 0 0 0.756863 0 0 0 0 0.254902 0 0 0 0.7 0"/>
<feBlend mode="normal" in2="BackgroundImageFix" result="effect1_dropShadow_79_414"/>
<feBlend mode="normal" in="SourceGraphic" in2="effect1_dropShadow_79_414" result="shape"/>
<feColorMatrix in="SourceAlpha" type="matrix" values="0 0 0 0 0 0 0 0 0 0 0 0 0 0 0 0 0 0 127 0" result="hardAlpha"/>
<feOffset dx="0.662921" dy="0.883895"/>
<feGaussianBlur stdDeviation="0.773408"/>
<feComposite in2="hardAlpha" operator="arithmetic" k2="-1" k3="1"/>
<feColorMatrix type="matrix" values="0 0 0 0 1 0 0 0 0 1 0 0 0 0 1 0 0 0 0.43 0"/>
<feBlend mode="normal" in2="shape" result="effect2_innerShadow_79_414"/>
</filter>
<linearGradient id="paint0_linear_79_414" x1="10.9494" y1="8.97753" x2="18" y2="27" gradientUnits="userSpaceOnUse">
<stop stop-color="white"/>
<stop offset="1" stop-color="white" stop-opacity="0"/>
</linearGradient>
</defs>
</svg>
